<svg xmlns="http://www.w3.org/2000/svg" viewBox="31.2 39.2 62.4 78.5"><path d="M93.6 81.2c0-5.2-2.4-7.8-3.6-10-.9-1.6-4-10.8-4.2-17.6-.1-4.9-1.7-12.4-2.9-14.4-.9 0-1.5 7.8-2.3 11.6-1.4 7-3.8 8.9-4.4 9-.8-2.8-4.1-7.4-13.7-7.7h-.2c-9.6.4-12.9 4.9-13.7 7.7-.7-.1-3-2-4.4-9-.8-3.9-1.4-11.6-2.3-11.6-1.2 2-2.8 9.5-2.9 14.4-.2 6.9-3.3 16-4.2 17.6-1.2 2.2-3.6 4.7-3.6 10 0 3.7 5.2 7.2 5.6 11.4.1 1.2 0 2.3.1 3.4 2 17.5 17.9 21.7 25.4 21.7 7.6 0 23.4-4.2 25.4-21.7.2-1 0-2.1.1-3.4.6-4.2 5.8-7.6 5.8-11.4zM64.4 66c-.7-.1-3.4-.1-4.1 0-1.7.3-5.8 1-5.8-1.1 0-1.1 6.7-2.3 7.8-2.3 1.1 0 7.8 1.2 7.8 2.3.1 2.1-3.9 1.4-5.7 1.1z"/></svg>