<svg xmlns="http://www.w3.org/2000/svg" viewBox="28.5 48.8 57 97.7"><path d="M79.6 64.1c-.4-5.5-.6-10.9-2.5-15.2-.8 0-1.5 7.3-2.3 10.9-1.5 7.1-3.7 8.3-4.4 8.3-.9-3.9-4.4-4.2-7.8-5.9-1.2-.6-2.3-1.1-3.6-1.2-.7-.1-1.3.1-2 .1s-1.3-.2-2-.1c-1.3.1-2.4.6-3.6 1.2-3.4 1.6-6.9 2-7.8 5.9-.7 0-3-1.1-4.4-8.3-.8-3.6-1.5-10.9-2.3-10.9-1.9 4.4-2.1 9.8-2.5 15.2-.9 23.5-5.9 36.3-5.9 47.2 0 26.1 11.7 35.3 28.5 35.3s28.5-9.2 28.5-35.3c0-10.9-5-23.7-5.9-47.2zm-16.7 9.7c-2.8 1.2-5.4-.7-5.9-.7h-.2c-.5 0-3.1 1.9-5.9.7-.8-3.6 2.4-4 5.9-3.9 3.7-.1 6.9.3 6.1 3.9z"/></svg>