<svg xmlns="http://www.w3.org/2000/svg"><symbol id="login-icon" viewBox="0 0 16 16"><style>.st0{fill:#b2b2b2}</style><path class="st0" fill="currentColor" d="M0 7h7V4l4 4-4 4V9H0z"/><path class="st0" fill="currentColor" d="M7 0v2h7v12H7v2h9V0z"/></symbol><symbol id="beard-1" viewBox="0 0 51.5 49.5"><path d="M51 0c-3 8-3 17-10 21-1-4-4-5-7-7l-7-2h-3l-6 2c-4 2-7 3-8 7C4 17 3 8 1 0L0 2l2 29c1 6 6 11 11 14 3 2 8 4 13 4 4 0 9-2 13-4 4-3 9-8 11-14l1-29V0zM37 28c0 2-2 4-4 4s-4-5-7-5c-4 0-5 5-8 5-2 0-3-2-4-4l2-5c1-2 3-1 5-2l5-2c1 2 2 2 5 2 1 1 3 0 4 2l2 5z" fill="currentColor"/></symbol><symbol id="beard-2" viewBox="0 0 57.7 68.6"><path d="M52 22v-5c1-6 2-12 0-17l-2 12-3 8-2 2c-1-4-5-5-8-7l-6-2h-4l-6 2c-4 2-7 3-8 7l-2-2-3-8L6 0C4 5 5 11 5 17l1 5c1 11-7 23-6 29 1 8 9 10 14 13 5 2 9 5 14 5h2c5 0 9-3 14-5 5-3 13-5 14-13 1-6-7-18-6-29zm-23 4l-7-1c0-2 4-1 7-1s6-1 7 1l-7 1z" fill="currentColor"/></symbol><symbol id="beard-3" viewBox="31.2 39.2 62.4 78.5"><path d="M94 81c0-5-3-8-4-10-1-1-4-11-4-17l-3-15-2 12c-2 7-4 9-5 9-1-3-4-8-14-8-9 1-13 5-13 8-1 0-3-2-5-9l-2-12-3 15c0 7-3 16-4 17-1 2-4 5-4 10 0 4 5 7 6 12v3c2 18 18 22 25 22 8 0 24-4 26-22v-3c0-5 6-8 6-12zM64 66h-4c-1 0-5 1-5-1l7-2 8 2c0 2-4 1-6 1z" fill="currentColor"/></symbol><symbol id="beard-4" viewBox="28.5 48.8 57 97.7"><path d="M80 64c-1-5-1-11-3-15l-2 11c-2 7-4 8-5 8-1-4-4-4-7-6l-4-1h-4l-4 1c-3 2-7 2-7 6-1 0-3-1-5-8l-2-11c-2 4-2 10-3 15-1 24-6 36-6 47 1 26 12 36 29 36s29-10 29-36c0-11-5-23-6-47zM63 74c-3 1-6-1-6-1-1 0-3 2-6 1-1-4 2-4 6-4s7 0 6 4z" fill="currentColor"/></symbol><symbol id="beard-5" viewBox="22.9 52.4 44.7 104.8"><path d="M66 52c-3 22-5 23-7 23l-5-2c-1-1-4-3-9-3s-7 2-9 3l-5 2c-1 0-4-1-7-23-2 13-1 51 1 64 3 19 10 35 14 40l6 1 7-1c3-5 10-22 13-40 3-13 3-51 1-64zM45 81H35c1-2 9-3 10-3s9 1 10 3H45z" fill="currentColor"/></symbol></svg>